<svg width="1100" height="575" viewBox="0 0 1100 575" xmlns="http://www.w3.org/2000/svg">
  <defs>
    <linearGradient id="bg2" x1="0%" y1="0%" x2="100%" y2="100%">
      <stop offset="0%"   stop-color="#0d1117"/>
      <stop offset="100%" stop-color="#161b22"/>
    </linearGradient>
    <marker id="arr" markerWidth="8" markerHeight="6" refX="8" refY="3" orient="auto">
      <polygon points="0 0, 8 3, 0 6" fill="#8b949e"/>
    </marker>
    <marker id="arrAmber" markerWidth="8" markerHeight="6" refX="8" refY="3" orient="auto">
      <polygon points="0 0, 8 3, 0 6" fill="#f0b429"/>
    </marker>
    <marker id="arrBlue" markerWidth="8" markerHeight="6" refX="8" refY="3" orient="auto">
      <polygon points="0 0, 8 3, 0 6" fill="#58a6ff"/>
    </marker>
  </defs>

  <!-- Background -->
  <rect width="1100" height="575" rx="10" fill="url(#bg2)"/>

  <!-- Title -->
  <text x="550" y="28"
        text-anchor="middle"
        font-family="-apple-system, BlinkMacSystemFont, 'Segoe UI', Helvetica, Arial, sans-serif"
        font-size="13" font-weight="600" fill="#8b949e" letter-spacing="2">MESSAGE FLOW</text>

  <!-- ═══════════════ TIER 1 — 7 Channels ═══════════════ -->
  <rect x="30"  y="48" width="120" height="46" rx="8" fill="#1f2937" stroke="#25d366" stroke-width="1.5"/>
  <text x="90"  y="67" text-anchor="middle" font-family="sans-serif" font-size="11" font-weight="600" fill="#25d366">WhatsApp</text>
  <text x="90"  y="84" text-anchor="middle" font-family="sans-serif" font-size="10" fill="#8b949e">daemon</text>

  <rect x="168" y="48" width="120" height="46" rx="8" fill="#1f2937" stroke="#229ed9" stroke-width="1.5"/>
  <text x="228" y="67" text-anchor="middle" font-family="sans-serif" font-size="11" font-weight="600" fill="#229ed9">Telegram</text>
  <text x="228" y="84" text-anchor="middle" font-family="sans-serif" font-size="10" fill="#8b949e">daemon</text>

  <rect x="306" y="48" width="120" height="46" rx="8" fill="#1f2937" stroke="#5865f2" stroke-width="1.5"/>
  <text x="366" y="67" text-anchor="middle" font-family="sans-serif" font-size="11" font-weight="600" fill="#5865f2">Discord</text>
  <text x="366" y="84" text-anchor="middle" font-family="sans-serif" font-size="10" fill="#8b949e">daemon</text>

  <rect x="444" y="48" width="120" height="46" rx="8" fill="#1f2937" stroke="#e01e5a" stroke-width="1.5"/>
  <text x="504" y="67" text-anchor="middle" font-family="sans-serif" font-size="11" font-weight="600" fill="#e01e5a">Slack</text>
  <text x="504" y="84" text-anchor="middle" font-family="sans-serif" font-size="10" fill="#8b949e">daemon</text>

  <rect x="582" y="48" width="120" height="46" rx="8" fill="#1f2937" stroke="#f0b429" stroke-width="1.5"/>
  <text x="642" y="67" text-anchor="middle" font-family="sans-serif" font-size="11" font-weight="600" fill="#f0b429">Email</text>
  <text x="642" y="84" text-anchor="middle" font-family="sans-serif" font-size="10" fill="#8b949e">daemon</text>

  <rect x="720" y="48" width="120" height="46" rx="8" fill="#1f2937" stroke="#0078d4" stroke-width="1.5"/>
  <text x="780" y="67" text-anchor="middle" font-family="sans-serif" font-size="11" font-weight="600" fill="#0078d4">Teams</text>
  <text x="780" y="84" text-anchor="middle" font-family="sans-serif" font-size="10" fill="#8b949e">daemon</text>

  <rect x="858" y="48" width="120" height="46" rx="8" fill="#1f2937" stroke="#3a76f0" stroke-width="1.5"/>
  <text x="918" y="67" text-anchor="middle" font-family="sans-serif" font-size="11" font-weight="600" fill="#3a76f0">Signal</text>
  <text x="918" y="84" text-anchor="middle" font-family="sans-serif" font-size="10" fill="#8b949e">daemon</text>

  <!-- Arrows Tier1 → funnel line -->
  <line x1="90"  y1="94" x2="90"  y2="112" stroke="#8b949e" stroke-width="1.2" marker-end="url(#arr)"/>
  <line x1="228" y1="94" x2="228" y2="112" stroke="#8b949e" stroke-width="1.2" marker-end="url(#arr)"/>
  <line x1="366" y1="94" x2="366" y2="112" stroke="#8b949e" stroke-width="1.2" marker-end="url(#arr)"/>
  <line x1="504" y1="94" x2="504" y2="112" stroke="#8b949e" stroke-width="1.2" marker-end="url(#arr)"/>
  <line x1="642" y1="94" x2="642" y2="112" stroke="#8b949e" stroke-width="1.2" marker-end="url(#arr)"/>
  <line x1="780" y1="94" x2="780" y2="112" stroke="#8b949e" stroke-width="1.2" marker-end="url(#arr)"/>
  <line x1="918" y1="94" x2="918" y2="112" stroke="#8b949e" stroke-width="1.2" marker-end="url(#arr)"/>

  <!-- Funnel horizontal collector -->
  <line x1="90"  y1="112" x2="918" y2="112" stroke="#30363d" stroke-width="1.5"/>
  <line x1="504" y1="112" x2="504" y2="128" stroke="#f0b429" stroke-width="1.5" marker-end="url(#arrAmber)"/>

  <!-- ═══════════════ CorvinOS — outer boundary (the OS layer) ═══════════════ -->
  <rect x="35" y="128" width="1030" height="210" rx="12" fill="#11151c" stroke="#f0b429" stroke-width="2"/>
  <text x="60" y="153"
        font-family="-apple-system, BlinkMacSystemFont, 'Segoe UI', Helvetica, Arial, sans-serif"
        font-size="16" font-weight="800" letter-spacing="0.5" fill="#f0b429">CorvinOS</text>
  <text x="60" y="169" font-family="sans-serif" font-size="9.5" fill="#8b949e">orchestration · compliance · same for every engine below</text>

  <!-- Bridge Adapter -->
  <rect x="65" y="180" width="770" height="140" rx="10" fill="#1f2937" stroke="#f0b429" stroke-width="1.5"/>
  <text x="450" y="203"
        text-anchor="middle"
        font-family="-apple-system, BlinkMacSystemFont, 'Segoe UI', Helvetica, Arial, sans-serif"
        font-size="14" font-weight="700" fill="#f0b429">Bridge Adapter</text>
  <!-- Row 1 -->
  <rect x="190" y="211" width="90"  height="20" rx="10" fill="#0d1117"/>
  <text x="235" y="225" text-anchor="middle" font-family="sans-serif" font-size="10" fill="#8b949e">whitelist ACL</text>
  <rect x="288" y="211" width="98"  height="20" rx="10" fill="#0d1117"/>
  <text x="337" y="225" text-anchor="middle" font-family="sans-serif" font-size="10" fill="#8b949e">per-chat profile</text>
  <rect x="394" y="211" width="90"  height="20" rx="10" fill="#0d1117"/>
  <text x="439" y="225" text-anchor="middle" font-family="sans-serif" font-size="10" fill="#8b949e">auto-routing</text>
  <rect x="492" y="211" width="98"  height="20" rx="10" fill="#0d1117"/>
  <text x="541" y="225" text-anchor="middle" font-family="sans-serif" font-size="10" fill="#8b949e">persona merge</text>
  <rect x="598" y="211" width="98"  height="20" rx="10" fill="#0d1117"/>
  <text x="647" y="225" text-anchor="middle" font-family="sans-serif" font-size="10" fill="#8b949e">consent gate</text>
  <!-- Row 2 -->
  <rect x="190" y="237" width="90"  height="20" rx="10" fill="#0d1117"/>
  <text x="235" y="251" text-anchor="middle" font-family="sans-serif" font-size="10" fill="#8b949e">TTS voice</text>
  <rect x="288" y="237" width="98"  height="20" rx="10" fill="#0d1117"/>
  <text x="337" y="251" text-anchor="middle" font-family="sans-serif" font-size="10" fill="#8b949e">skill grading</text>
  <rect x="394" y="237" width="90"  height="20" rx="10" fill="#0d1117"/>
  <text x="439" y="251" text-anchor="middle" font-family="sans-serif" font-size="10" fill="#8b949e">audit chain</text>
  <rect x="492" y="237" width="98"  height="20" rx="10" fill="#0d1117"/>
  <text x="541" y="251" text-anchor="middle" font-family="sans-serif" font-size="10" fill="#8b949e">quota · roles</text>
  <rect x="598" y="237" width="98"  height="20" rx="10" fill="#0d1117"/>
  <text x="647" y="251" text-anchor="middle" font-family="sans-serif" font-size="10" fill="#8b949e">path-gate hook</text>
  <text x="450" y="305" text-anchor="middle" font-family="sans-serif" font-size="9.5" fill="#6e7681">per-chat-sequential · cross-chat-parallel</text>

  <!-- MCP Plugins (also inside the CorvinOS boundary) -->
  <rect x="850" y="180" width="195" height="140" rx="8" fill="#0d1117" stroke="#30363d" stroke-width="1"/>
  <text x="947" y="198" text-anchor="middle" font-family="sans-serif" font-size="10" font-weight="700" fill="#8b949e" letter-spacing="1">MCP PLUGINS</text>
  <rect x="862" y="206" width="171" height="22" rx="6" fill="#1f2937" stroke="#f0b429" stroke-width="1"/>
  <text x="947" y="221" text-anchor="middle" font-family="sans-serif" font-size="11" fill="#f0b429">⚙ Forge</text>
  <rect x="862" y="234" width="171" height="22" rx="6" fill="#1f2937" stroke="#a78bfa" stroke-width="1"/>
  <text x="947" y="249" text-anchor="middle" font-family="sans-serif" font-size="11" fill="#a78bfa">✦ SkillForge</text>
  <rect x="862" y="262" width="171" height="22" rx="6" fill="#1f2937" stroke="#3fb950" stroke-width="1"/>
  <text x="947" y="277" text-anchor="middle" font-family="sans-serif" font-size="11" fill="#3fb950">◎ Recall</text>
  <rect x="862" y="290" width="171" height="22" rx="6" fill="#1f2937" stroke="#3b82f6" stroke-width="1"/>
  <text x="947" y="305" text-anchor="middle" font-family="sans-serif" font-size="11" fill="#3b82f6">⊞ Compute</text>

  <!-- Dotted connector adapter → plugins -->
  <line x1="835" y1="250" x2="850" y2="250" stroke="#30363d" stroke-width="1" stroke-dasharray="4,3"/>

  <!-- ═══════════════ Protocol boundary — CorvinOS → Worker Engines ═══════════════ -->
  <line x1="504" y1="338" x2="504" y2="373" stroke="#58a6ff" stroke-width="2" marker-end="url(#arrBlue)"/>
  <rect x="356" y="347" width="296" height="20" rx="10" fill="#0d1117" stroke="#58a6ff" stroke-width="1"/>
  <text x="504" y="361" text-anchor="middle" font-family="sans-serif" font-size="10.5" font-weight="700" fill="#58a6ff" letter-spacing="0.3">WorkerEngine protocol</text>

  <!-- ═══════════════ Worker Engines — outer boundary (pluggable, swappable) ═══════════════ -->
  <rect x="35" y="378" width="1030" height="140" rx="12" fill="#11151c" stroke="#58a6ff" stroke-width="2"/>
  <text x="60" y="403"
        font-family="-apple-system, BlinkMacSystemFont, 'Segoe UI', Helvetica, Arial, sans-serif"
        font-size="16" font-weight="800" letter-spacing="0.5" fill="#58a6ff">Worker Engines</text>
  <text x="60" y="419" font-family="sans-serif" font-size="9.5" fill="#8b949e">swappable LLM backends — CorvinOS never changes to add one</text>

  <!-- Claude Code -->
  <rect x="65"  y="428" width="172" height="72" rx="8" fill="#1f2937" stroke="#d97706" stroke-width="1.5"/>
  <text x="151" y="453" text-anchor="middle" font-family="sans-serif" font-size="12" font-weight="700" fill="#d97706">Claude Code</text>
  <text x="151" y="471" text-anchor="middle" font-family="sans-serif" font-size="9.5" fill="#8b949e">full feature set</text>
  <text x="151" y="486" text-anchor="middle" font-family="sans-serif" font-size="9.5" fill="#8b949e">OAuth · Max</text>

  <!-- Codex CLI -->
  <rect x="252" y="428" width="172" height="72" rx="8" fill="#1f2937" stroke="#3b82f6" stroke-width="1.5"/>
  <text x="338" y="453" text-anchor="middle" font-family="sans-serif" font-size="12" font-weight="700" fill="#3b82f6">Codex CLI</text>
  <text x="338" y="471" text-anchor="middle" font-family="sans-serif" font-size="9.5" fill="#8b949e">OpenAI</text>
  <text x="338" y="486" text-anchor="middle" font-family="sans-serif" font-size="9.5" fill="#8b949e">gpt-4o / gpt-5</text>

  <!-- OpenCode -->
  <rect x="439" y="428" width="172" height="72" rx="8" fill="#1f2937" stroke="#3fb950" stroke-width="1.5"/>
  <text x="525" y="453" text-anchor="middle" font-family="sans-serif" font-size="12" font-weight="700" fill="#3fb950">OpenCode</text>
  <text x="525" y="471" text-anchor="middle" font-family="sans-serif" font-size="9.5" fill="#8b949e">Ollama · OpenRouter</text>
  <text x="525" y="486" text-anchor="middle" font-family="sans-serif" font-size="9.5" fill="#8b949e">bring-your-own-model</text>

  <!-- Copilot CLI -->
  <rect x="626" y="428" width="172" height="72" rx="8" fill="#1f2937" stroke="#8957e5" stroke-width="1.5"/>
  <text x="712" y="453" text-anchor="middle" font-family="sans-serif" font-size="12" font-weight="700" fill="#8957e5">Copilot CLI</text>
  <text x="712" y="471" text-anchor="middle" font-family="sans-serif" font-size="9.5" fill="#8b949e">GitHub</text>
  <text x="712" y="486" text-anchor="middle" font-family="sans-serif" font-size="9.5" fill="#8b949e">Copilot subscription</text>

  <!-- Hermes -->
  <rect x="813" y="428" width="172" height="72" rx="8" fill="#1f2937" stroke="#06b6d4" stroke-width="1.5"/>
  <text x="899" y="453" text-anchor="middle" font-family="sans-serif" font-size="12" font-weight="700" fill="#06b6d4">Hermes</text>
  <text x="899" y="471" text-anchor="middle" font-family="sans-serif" font-size="9.5" fill="#8b949e">Ollama · local</text>
  <text x="899" y="486" text-anchor="middle" font-family="sans-serif" font-size="9.5" fill="#8b949e">zero-config default</text>

  <!-- Label bottom -->
  <text x="550" y="545"
        text-anchor="middle"
        font-family="-apple-system, BlinkMacSystemFont, 'Segoe UI', Helvetica, Arial, sans-serif"
        font-size="11" fill="#484f58">
    CorvinOS (audit, TTS, grading, compliance) is identical for every engine — swap the worker without touching the OS
  </text>
</svg>
